<svg width="22" height="28" viewBox="0 0 22 28" fill="none" xmlns="http://www.w3.org/2000/svg">
    <g clip-path="url(#clip0_1_623)">
        <path d="M14.363 26.6823C19.5394 26.6823 22.3218 20.4058 18.763 16.7176L18.6983 16.6529L10.9336 8.88818L3.16887 16.6529L3.10416 16.7176C-0.519372 20.4058 2.3277 26.6823 7.50414 26.6823H14.363Z" fill="white"/>
        <path d="M3.16887 11.3471L4.13946 12.3177L10.9335 5.52358L17.7277 12.3177L18.6983 11.3471C21.1571 8.88829 22.1277 5.71771 21.8688 2.74124C21.7394 1.57653 20.7688 0.735352 19.6041 0.735352H2.3277C1.163 0.735352 0.127703 1.57653 0.0629969 2.74124C-0.260532 5.71771 0.645341 8.82358 3.16887 11.3471Z" fill="white"/>
    </g>
    <defs>
        <clipPath id="clip0_1_623">
            <rect width="22" height="26.5294" fill="white" transform="translate(0 0.735352)"/>
        </clipPath>
    </defs>
</svg>
