<svg width="25" height="24" viewBox="0 0 25 24" fill="none" xmlns="http://www.w3.org/2000/svg">
    <path d="M16.6667 22.75H8.66666C5.01666 22.75 2.91666 20.65 2.91666 17V7C2.91666 3.35 5.01666 1.25 8.66666 1.25H16.6667C20.3167 1.25 22.4167 3.35 22.4167 7V17C22.4167 20.65 20.3167 22.75 16.6667 22.75ZM8.66666 2.75C5.80666 2.75 4.41666 4.14 4.41666 7V17C4.41666 19.86 5.80666 21.25 8.66666 21.25H16.6667C19.5267 21.25 20.9167 19.86 20.9167 17V7C20.9167 4.14 19.5267 2.75 16.6667 2.75H8.66666Z" fill="white"/>
    <path d="M19.1667 9.25H17.1667C15.6467 9.25 14.4167 8.02 14.4167 6.5V4.5C14.4167 4.09 14.7567 3.75 15.1667 3.75C15.5767 3.75 15.9167 4.09 15.9167 4.5V6.5C15.9167 7.19 16.4767 7.75 17.1667 7.75H19.1667C19.5767 7.75 19.9167 8.09 19.9167 8.5C19.9167 8.91 19.5767 9.25 19.1667 9.25Z" fill="white"/>
    <path d="M12.6667 13.75H8.66666C8.25666 13.75 7.91666 13.41 7.91666 13C7.91666 12.59 8.25666 12.25 8.66666 12.25H12.6667C13.0767 12.25 13.4167 12.59 13.4167 13C13.4167 13.41 13.0767 13.75 12.6667 13.75Z" fill="white"/>
    <path d="M16.6667 17.75H8.66666C8.25666 17.75 7.91666 17.41 7.91666 17C7.91666 16.59 8.25666 16.25 8.66666 16.25H16.6667C17.0767 16.25 17.4167 16.59 17.4167 17C17.4167 17.41 17.0767 17.75 16.6667 17.75Z" fill="white"/>
</svg>
